name Walk7.mot
datacolumns 19
datarows 20
range 3.13500000 3.23000000
endheader

                time	   L_ground_force_vx	   L_ground_force_vy	   L_ground_force_vz	   L_ground_force_px	   L_ground_force_py	   L_ground_force_pz	   R_ground_force_vx	   R_ground_force_vy	   R_ground_force_vz	   R_ground_force_px	   R_ground_force_py	   R_ground_force_pz	   L_ground_torque_x	   L_ground_torque_y	   L_ground_torque_z	   R_ground_torque_x	   R_ground_torque_y	   R_ground_torque_z	
          3.13500000	          0.09608829	          0.19763823	         -0.01246624	         -0.00018727	          0.00000000	         -0.00001595	        -20.18426988	        712.51856552	        -32.21704588	          0.38627882	          0.00000000	          0.06690208	          0.00000000	          0.00004466	          0.00000000	          0.00000000	          1.72658010	          0.00000000	
          3.14000000	          0.07560215	          0.14639285	         -0.01144501	         -0.00018315	          0.00000000	         -0.00001608	        -18.52390321	        702.13133019	        -32.03074250	          0.38849777	          0.00000000	          0.06708144	          0.00000000	          0.00002100	          0.00000000	          0.00000000	          1.47506091	          0.00000000	
          3.14500000	          0.05648557	          0.10195228	         -0.00988495	         -0.00016602	          0.00000000	         -0.00001490	        -16.99178902	        692.20975581	        -31.79647180	          0.39080465	          0.00000000	          0.06726569	          0.00000000	          0.00000416	          0.00000000	          0.00000000	          1.24854459	          0.00000000	
          3.15000000	          0.03975915	          0.06539021	         -0.00810273	         -0.00014191	          0.00000000	         -0.00001296	        -15.57945533	        682.92352529	        -31.51446317	          0.39318760	          0.00000000	          0.06745200	          0.00000000	         -0.00000696	          0.00000000	          0.00000000	          1.04524622	          0.00000000	
          3.15500000	          0.02588836	          0.03677209	         -0.00631900	         -0.00011522	          0.00000000	         -0.00001069	        -14.27419570	        674.43297638	        -31.18708133	          0.39563323	          0.00000000	          0.06763778	          0.00000000	         -0.00001354	          0.00000000	          0.00000000	          0.86269365	          0.00000000	
          3.16000000	          0.01494583	          0.01551161	         -0.00467538	         -0.00008900	          0.00000000	         -0.00000839	        -13.06198842	        666.88020811	        -30.81872134	          0.39812812	          0.00000000	          0.06781994	          0.00000000	         -0.00001669	          0.00000000	          0.00000000	          0.69804760	          0.00000000	
          3.16500000	          0.00674656	          0.00065090	         -0.00325158	         -0.00006514	          0.00000000	         -0.00000625	        -11.92999452	        660.38076174	        -30.41643428	          0.40066014	          0.00000000	          0.06799501	          0.00000000	         -0.00001739	          0.00000000	          0.00000000	          0.54830654	          0.00000000	
          3.17000000	          0.00095496	         -0.00893046	         -0.00208137	         -0.00004469	          0.00000000	         -0.00000439	        -10.86544545	        655.01598677	        -29.99074826	          0.40321924	          0.00000000	          0.06815966	          0.00000000	         -0.00001647	          0.00000000	          0.00000000	          0.41041205	          0.00000000	
          3.17500000	         -0.00283461	         -0.01436852	         -0.00116633	         -0.00002804	          0.00000000	         -0.00000284	         -9.85372341	        650.83055069	        -29.55639075	          0.40579802	          0.00000000	          0.06831222	          0.00000000	         -0.00001457	          0.00000000	          0.00000000	          0.28148416	          0.00000000	
          3.18000000	         -0.00504060	         -0.01671946	         -0.00048728	         -0.00001515	          0.00000000	         -0.00000163	         -8.87910810	        647.83288783	        -29.13157730	          0.40839135	          0.00000000	          0.06845294	          0.00000000	         -0.00001220	          0.00000000	          0.00000000	          0.15828873	          0.00000000	
          3.18500000	         -0.00605661	         -0.01690476	         -0.00001329	         -0.00000568	          0.00000000	         -0.00000072	         -7.92602332	        646.00171671	        -28.73584197	          0.41099524	          0.00000000	          0.06858369	          0.00000000	         -0.00000972	          0.00000000	          0.00000000	          0.03728287	          0.00000000	
          3.19000000	         -0.00622915	         -0.01568663	          0.00029173	          0.00000084	          0.00000000	         -0.00000008	         -6.98172881	        645.29551115	        -28.38826221	          0.41360712	          0.00000000	          0.06870867	          0.00000000	         -0.00000736	          0.00000000	          0.00000000	         -0.08475801	          0.00000000	
          3.19500000	         -0.00584715	         -0.01366485	          0.00046425	          0.00000496	          0.00000000	          0.00000033	         -6.03743605	        645.65500428	        -28.10633917	          0.41622716	          0.00000000	          0.06883120	          0.00000000	         -0.00000526	          0.00000000	          0.00000000	         -0.21079305	          0.00000000	
          3.20000000	         -0.00513974	         -0.01128759	          0.00053818	          0.00000720	          0.00000000	          0.00000058	         -5.08760182	        647.00460302	        -27.90495759	          0.41885711	          0.00000000	          0.06895291	          0.00000000	         -0.00000350	          0.00000000	          0.00000000	         -0.34342470	          0.00000000	
          3.20500000	         -0.00427960	         -0.00887039	          0.00054302	          0.00000807	          0.00000000	          0.00000068	         -4.12985485	        649.25544956	        -27.79543476	          0.42149987	          0.00000000	          0.06907594	          0.00000000	         -0.00000209	          0.00000000	          0.00000000	         -0.48467114	          0.00000000	
          3.21000000	         -0.00338955	         -0.00661875	          0.00050318	          0.00000799	          0.00000000	          0.00000070	         -3.16515746	        652.30493652	        -27.78531528	          0.42416261	          0.00000000	          0.06920159	          0.00000000	         -0.00000103	          0.00000000	          0.00000000	         -0.63581547	          0.00000000	
          3.21500000	         -0.00255070	         -0.00465135	          0.00043783	          0.00000731	          0.00000000	          0.00000065	         -2.19806982	        656.03944229	        -27.87697495	          0.42685644	          0.00000000	          0.06932976	          0.00000000	         -0.00000026	          0.00000000	          0.00000000	         -0.79735381	          0.00000000	
          3.22000000	         -0.00181103	         -0.00302183	          0.00036130	          0.00000629	          0.00000000	          0.00000057	         -1.23676362	        660.33965572	        -28.06696212	          0.42959311	          0.00000000	          0.06945954	          0.00000000	          0.00000025	          0.00000000	          0.00000000	         -0.96919835	          0.00000000	
          3.22500000	         -0.00119347	         -0.00173786	          0.00028365	          0.00000514	          0.00000000	          0.00000048	         -0.29086379	        665.08616408	        -28.34754471	          0.43238408	          0.00000000	          0.06958897	          0.00000000	          0.00000056	          0.00000000	          0.00000000	         -1.15070342	          0.00000000	
          3.23000000	         -0.00070305	         -0.00077703	          0.00021142	          0.00000400	          0.00000000	          0.00000038	          0.62975185	        670.17354000	        -28.70779139	          0.43523907	          0.00000000	          0.06971811	          0.00000000	          0.00000071	          0.00000000	          0.00000000	         -1.34102495	          0.00000000	
